<svg width="231" height="55" viewBox="0 0 231 55" fill="none" xmlns="http://www.w3.org/2000/svg">
 <path
  d="M1 41C1 41 5.98649 34.4206 16.7905 27.1345C30.3302 18.0035 52.3539 7.76867 82.8615 8.00398C98.9271 8.1279 112.64 11.0102 124 15.0244"
  stroke="#FFD700" stroke-width="2" stroke-linecap="round" />
 <path
  d="M57.8 41C56.92 41 56.24 40.7733 55.76 40.32C55.3067 39.84 55.08 39.16 55.08 38.28V15.52C55.08 14.64 55.3067 13.9733 55.76 13.52C56.24 13.04 56.92 12.8 57.8 12.8H67.4C69.3733 12.8 71.0533 13.0933 72.44 13.68C73.8267 14.2667 74.88 15.1067 75.6 16.2C76.3467 17.2933 76.72 18.6 76.72 20.12C76.72 21.8267 76.2267 23.2667 75.24 24.44C74.2533 25.6133 72.9067 26.4 71.2 26.8V26.2C73.1733 26.4933 74.7067 27.24 75.8 28.44C76.8933 29.64 77.44 31.2 77.44 33.12C77.44 35.6267 76.5867 37.5733 74.88 38.96C73.2 40.32 70.8533 41 67.84 41H57.8ZM60 37.12H67.2C69.0133 37.12 70.3467 36.7733 71.2 36.08C72.0533 35.36 72.48 34.2933 72.48 32.88C72.48 31.44 72.0533 30.3733 71.2 29.68C70.3467 28.9867 69.0133 28.64 67.2 28.64H60V37.12ZM60 24.76H66.52C68.28 24.76 69.5867 24.4267 70.44 23.76C71.32 23.0667 71.76 22.0533 71.76 20.72C71.76 19.3867 71.32 18.3867 70.44 17.72C69.5867 17.0267 68.28 16.68 66.52 16.68H60V24.76ZM83.6191 41.28C82.8191 41.28 82.2057 41.04 81.7791 40.56C81.3524 40.08 81.1391 39.4133 81.1391 38.56V23.88C81.1391 23 81.3524 22.3333 81.7791 21.88C82.2057 21.4 82.8191 21.16 83.6191 21.16C84.4191 21.16 85.0324 21.4 85.4591 21.88C85.9124 22.3333 86.1391 23 86.1391 23.88V38.56C86.1391 39.4133 85.9257 40.08 85.4991 40.56C85.0724 41.04 84.4457 41.28 83.6191 41.28ZM83.6191 17.44C82.6857 17.44 81.9524 17.2133 81.4191 16.76C80.9124 16.28 80.6591 15.6267 80.6591 14.8C80.6591 13.9467 80.9124 13.2933 81.4191 12.84C81.9524 12.3867 82.6857 12.16 83.6191 12.16C84.5791 12.16 85.3124 12.3867 85.8191 12.84C86.3257 13.2933 86.5791 13.9467 86.5791 14.8C86.5791 15.6267 86.3257 16.28 85.8191 16.76C85.3124 17.2133 84.5791 17.44 83.6191 17.44ZM99.4544 48.6C98.0144 48.6 96.6144 48.4667 95.2544 48.2C93.921 47.9333 92.7077 47.52 91.6144 46.96C91.1077 46.6933 90.761 46.3733 90.5744 46C90.4144 45.6267 90.361 45.24 90.4144 44.84C90.4944 44.4667 90.6544 44.1333 90.8944 43.84C91.161 43.5467 91.481 43.3467 91.8544 43.24C92.2277 43.1333 92.6144 43.1867 93.0144 43.4C94.1877 43.9867 95.2944 44.36 96.3344 44.52C97.401 44.7067 98.3077 44.8 99.0544 44.8C100.841 44.8 102.174 44.36 103.054 43.48C103.961 42.6267 104.414 41.3467 104.414 39.64V36.04H104.774C104.374 37.4 103.534 38.4933 102.254 39.32C101.001 40.12 99.5744 40.52 97.9744 40.52C96.2144 40.52 94.681 40.12 93.3744 39.32C92.0677 38.4933 91.0544 37.3467 90.3344 35.88C89.6144 34.4133 89.2544 32.7067 89.2544 30.76C89.2544 29.2933 89.4544 27.9733 89.8544 26.8C90.281 25.6 90.8677 24.5733 91.6144 23.72C92.3877 22.8667 93.3077 22.2133 94.3744 21.76C95.4677 21.28 96.6677 21.04 97.9744 21.04C99.6277 21.04 101.068 21.4533 102.294 22.28C103.548 23.08 104.361 24.1467 104.734 25.48L104.334 26.48V23.64C104.334 22.8133 104.548 22.1867 104.974 21.76C105.428 21.3333 106.041 21.12 106.814 21.12C107.614 21.12 108.228 21.3333 108.654 21.76C109.081 22.1867 109.294 22.8133 109.294 23.64V39.04C109.294 42.2133 108.454 44.6 106.774 46.2C105.094 47.8 102.654 48.6 99.4544 48.6ZM99.3344 36.72C100.374 36.72 101.268 36.48 102.014 36C102.761 35.52 103.334 34.84 103.734 33.96C104.161 33.0533 104.374 31.9867 104.374 30.76C104.374 28.92 103.921 27.48 103.014 26.44C102.108 25.3733 100.881 24.84 99.3344 24.84C98.2944 24.84 97.401 25.08 96.6544 25.56C95.9077 26.04 95.321 26.72 94.8944 27.6C94.4944 28.48 94.2944 29.5333 94.2944 30.76C94.2944 32.6 94.7477 34.0533 95.6544 35.12C96.561 36.1867 97.7877 36.72 99.3344 36.72ZM126.534 41C125.654 41 124.974 40.7733 124.494 40.32C124.041 39.84 123.814 39.16 123.814 38.28V15.52C123.814 14.64 124.041 13.9733 124.494 13.52C124.974 13.04 125.654 12.8 126.534 12.8H136.134C138.108 12.8 139.788 13.0933 141.174 13.68C142.561 14.2667 143.614 15.1067 144.334 16.2C145.081 17.2933 145.454 18.6 145.454 20.12C145.454 21.8267 144.961 23.2667 143.974 24.44C142.988 25.6133 141.641 26.4 139.934 26.8V26.2C141.908 26.4933 143.441 27.24 144.534 28.44C145.628 29.64 146.174 31.2 146.174 33.12C146.174 35.6267 145.321 37.5733 143.614 38.96C141.934 40.32 139.588 41 136.574 41H126.534ZM128.734 37.12H135.934C137.748 37.12 139.081 36.7733 139.934 36.08C140.788 35.36 141.214 34.2933 141.214 32.88C141.214 31.44 140.788 30.3733 139.934 29.68C139.081 28.9867 137.748 28.64 135.934 28.64H128.734V37.12ZM128.734 24.76H135.254C137.014 24.76 138.321 24.4267 139.174 23.76C140.054 23.0667 140.494 22.0533 140.494 20.72C140.494 19.3867 140.054 18.3867 139.174 17.72C138.321 17.0267 137.014 16.68 135.254 16.68H128.734V24.76ZM156.953 41.4C155.327 41.4 153.98 41.1067 152.913 40.52C151.847 39.9067 151.047 39 150.513 37.8C150.007 36.6 149.753 35.1067 149.753 33.32V23.64C149.753 22.7867 149.967 22.16 150.393 21.76C150.82 21.3333 151.433 21.12 152.233 21.12C153.033 21.12 153.647 21.3333 154.073 21.76C154.527 22.16 154.753 22.7867 154.753 23.64V33.4C154.753 34.7867 155.033 35.8133 155.593 36.48C156.153 37.1467 157.047 37.48 158.273 37.48C159.607 37.48 160.7 37.0267 161.553 36.12C162.407 35.1867 162.833 33.96 162.833 32.44V23.64C162.833 22.7867 163.047 22.16 163.473 21.76C163.9 21.3333 164.513 21.12 165.313 21.12C166.113 21.12 166.727 21.3333 167.153 21.76C167.607 22.16 167.833 22.7867 167.833 23.64V38.76C167.833 40.4667 167.02 41.32 165.393 41.32C164.62 41.32 164.02 41.1067 163.593 40.68C163.167 40.2267 162.953 39.5867 162.953 38.76V35.72L163.513 36.92C162.953 38.36 162.1 39.4667 160.953 40.24C159.833 41.0133 158.5 41.4 156.953 41.4ZM174.598 41.32C173.771 41.32 173.131 41.1067 172.678 40.68C172.251 40.2267 172.038 39.5867 172.038 38.76V23.64C172.038 22.8133 172.251 22.1867 172.678 21.76C173.104 21.3333 173.704 21.12 174.478 21.12C175.251 21.12 175.851 21.3333 176.278 21.76C176.704 22.1867 176.918 22.8133 176.918 23.64V26.16H176.518C176.891 24.56 177.624 23.3467 178.718 22.52C179.811 21.6933 181.264 21.2 183.078 21.04C183.638 20.9867 184.078 21.1333 184.398 21.48C184.744 21.8 184.944 22.3067 184.998 23C185.051 23.6667 184.891 24.2133 184.518 24.64C184.171 25.04 183.638 25.28 182.918 25.36L182.038 25.44C180.411 25.6 179.184 26.1067 178.358 26.96C177.531 27.7867 177.118 28.96 177.118 30.48V38.76C177.118 39.5867 176.904 40.2267 176.478 40.68C176.051 41.1067 175.424 41.32 174.598 41.32ZM195.509 48.6C194.069 48.6 192.669 48.4667 191.309 48.2C189.976 47.9333 188.762 47.52 187.669 46.96C187.162 46.6933 186.816 46.3733 186.629 46C186.469 45.6267 186.416 45.24 186.469 44.84C186.549 44.4667 186.709 44.1333 186.949 43.84C187.216 43.5467 187.536 43.3467 187.909 43.24C188.282 43.1333 188.669 43.1867 189.069 43.4C190.242 43.9867 191.349 44.36 192.389 44.52C193.456 44.7067 194.362 44.8 195.109 44.8C196.896 44.8 198.229 44.36 199.109 43.48C200.016 42.6267 200.469 41.3467 200.469 39.64V36.04H200.829C200.429 37.4 199.589 38.4933 198.309 39.32C197.056 40.12 195.629 40.52 194.029 40.52C192.269 40.52 190.736 40.12 189.429 39.32C188.122 38.4933 187.109 37.3467 186.389 35.88C185.669 34.4133 185.309 32.7067 185.309 30.76C185.309 29.2933 185.509 27.9733 185.909 26.8C186.336 25.6 186.922 24.5733 187.669 23.72C188.442 22.8667 189.362 22.2133 190.429 21.76C191.522 21.28 192.722 21.04 194.029 21.04C195.682 21.04 197.122 21.4533 198.349 22.28C199.602 23.08 200.416 24.1467 200.789 25.48L200.389 26.48V23.64C200.389 22.8133 200.602 22.1867 201.029 21.76C201.482 21.3333 202.096 21.12 202.869 21.12C203.669 21.12 204.282 21.3333 204.709 21.76C205.136 22.1867 205.349 22.8133 205.349 23.64V39.04C205.349 42.2133 204.509 44.6 202.829 46.2C201.149 47.8 198.709 48.6 195.509 48.6ZM195.389 36.72C196.429 36.72 197.322 36.48 198.069 36C198.816 35.52 199.389 34.84 199.789 33.96C200.216 33.0533 200.429 31.9867 200.429 30.76C200.429 28.92 199.976 27.48 199.069 26.44C198.162 25.3733 196.936 24.84 195.389 24.84C194.349 24.84 193.456 25.08 192.709 25.56C191.962 26.04 191.376 26.72 190.949 27.6C190.549 28.48 190.349 29.5333 190.349 30.76C190.349 32.6 190.802 34.0533 191.709 35.12C192.616 36.1867 193.842 36.72 195.389 36.72ZM212.01 41.32C211.21 41.32 210.596 41.1067 210.17 40.68C209.743 40.2267 209.53 39.5867 209.53 38.76V15C209.53 14.1733 209.743 13.5467 210.17 13.12C210.596 12.6933 211.21 12.48 212.01 12.48C212.81 12.48 213.423 12.6933 213.85 13.12C214.303 13.5467 214.53 14.1733 214.53 15V25.36H213.97C214.556 23.9467 215.463 22.88 216.69 22.16C217.943 21.4133 219.356 21.04 220.93 21.04C222.503 21.04 223.796 21.3333 224.81 21.92C225.823 22.5067 226.583 23.4 227.09 24.6C227.596 25.7733 227.85 27.2667 227.85 29.08V38.76C227.85 39.5867 227.636 40.2267 227.21 40.68C226.783 41.1067 226.17 41.32 225.37 41.32C224.57 41.32 223.943 41.1067 223.49 40.68C223.063 40.2267 222.85 39.5867 222.85 38.76V29.32C222.85 27.8 222.556 26.6933 221.97 26C221.41 25.3067 220.53 24.96 219.33 24.96C217.863 24.96 216.69 25.4267 215.81 26.36C214.956 27.2667 214.53 28.48 214.53 30V38.76C214.53 40.4667 213.69 41.32 212.01 41.32Z"
  fill="black" />
 <rect x="30" y="19" width="2" height="22" rx="1" fill="#FCBF49" />
 <rect x="30" y="19" width="2" height="22" rx="1" fill="#FFD700" />
 <rect x="42" y="13" width="2" height="28" rx="1" fill="#FCBF49" />
 <rect x="42" y="13" width="2" height="28" rx="1" fill="#FFD700" />
 <rect x="17" y="25" width="2" height="16" rx="1" fill="#FCBF49" />
 <rect x="17" y="25" width="2" height="16" rx="1" fill="#FFD700" />
</svg>